# xmcd CD database file
#
# Track frame offsets:
#	150
#	18856
#	39551
#	55109
#	76549
#	95982
#	113608
#	129194
#	148361
#	166554
#
# Disc length: 2460 seconds
#
# Revision: 0
# Processed by: cddbd v1.5.2PL0 Copyright (c) Steve Scherf et al.
# Submitted via: CDex 1.70beta2
#
DISCID=72099a0a
DTITLE=Dave Mallet - Alright Now
DYEAR=2009
DGENRE=Country
TTITLE0=Ten Men
TTITLE1=One Of Those Things
TTITLE2=North Meets South
TTITLE3=Easier Than This
TTITLE4=Beautiful
TTITLE5=Innocent Time
TTITLE6=End Of The Day
TTITLE7=Dark Side Of The Moon
TTITLE8=Don't Ask Me
TTITLE9=Alright Now
EXTD=YEAR: 2009
EXTT0=
EXTT1=
EXTT2=
EXTT3=
EXTT4=
EXTT5=
EXTT6=
EXTT7=
EXTT8=
EXTT9=
PLAYORDER=
